<svg width="24" height="24" viewBox="0 0 24 24" fill="black" xmlns="http://www.w3.org/2000/svg">
<path d="M14.523 18.787C14.523 18.787 19.024 14.282 20.778 12.527C20.924 12.381 20.997 12.189 20.997 11.997C20.997 11.805 20.924 11.614 20.778 11.467C19.025 9.713 14.523 5.209 14.523 5.209C14.379 5.064 14.189 4.992 13.999 4.992C13.806 4.992 13.614 5.066 13.467 5.213C13.174 5.505 13.172 5.979 13.463 6.269L18.441 11.247H3.74899C3.33499 11.247 2.99899 11.583 2.99899 11.997C2.99899 12.411 3.33499 12.747 3.74899 12.747H18.441L13.462 17.726C13.173 18.015 13.176 18.488 13.468 18.78C13.616 18.928 13.809 19.002 14.001 19.002C14.191 19.002 14.379 18.93 14.523 18.787Z" />
</svg>
