<svg width="38" height="63" viewBox="0 0 38 63" fill="none" xmlns="http://www.w3.org/2000/svg">
<g clip-path="url(#clip0_300_1510)">
<path d="M16.3628 9.49079C16.3289 9.49079 16.2949 9.48018 16.2652 9.45897C16.2101 9.41654 16.1867 9.34653 16.208 9.27864L16.6132 8.02908C16.838 7.33747 17.0629 6.64798 17.2878 5.95637C16.5198 5.40054 15.7582 4.84683 14.9966 4.29312L14.5171 3.94307C14.4895 3.92398 14.4535 3.89216 14.428 3.82851C14.4068 3.77972 14.4132 3.72244 14.4429 3.67789C14.4726 3.63333 14.5235 3.60575 14.5765 3.60575H15.8982C16.6153 3.60575 17.3323 3.60575 18.0494 3.60575C18.3316 2.72745 18.618 1.85128 18.9023 0.975097L19.1271 0.289853C19.1484 0.224086 19.2099 0.181656 19.2778 0.179535H19.2799C19.3478 0.179535 19.4072 0.221965 19.4305 0.283488L19.4432 0.319554C19.4517 0.340769 19.4581 0.357741 19.4645 0.376834L19.6278 0.877508C19.9227 1.78763 20.2197 2.69563 20.5125 3.60575C21.2762 3.60575 22.0421 3.60575 22.8058 3.60575H23.9854C24.0596 3.60575 24.1233 3.65455 24.1424 3.72668C24.1593 3.79032 24.1402 3.87518 24.0851 3.91549C24.0851 3.91549 23.7562 4.15734 23.6544 4.22947L23.2577 4.518C22.5979 4.99746 21.936 5.47692 21.2741 5.95637C21.5753 6.8771 21.8745 7.79783 22.1736 8.72069L22.3221 9.17681C22.3285 9.19802 22.3348 9.21712 22.3412 9.2447L22.3518 9.28713C22.3688 9.35289 22.3433 9.4229 22.2882 9.46321C22.2606 9.4823 22.2288 9.49291 22.1969 9.49291C22.1651 9.49291 22.1312 9.4823 22.1015 9.46321L21.1786 8.79282C20.5464 8.33245 19.9121 7.87421 19.282 7.41172C18.4631 8.00786 17.6506 8.59764 16.838 9.18742L16.5135 9.4229L16.4498 9.46745C16.4222 9.48655 16.3904 9.49503 16.3586 9.49503L16.3628 9.49079Z" fill="black"/>
<path d="M19.2841 0.342792C19.2989 0.383101 19.3095 0.406437 19.3159 0.427652C19.6702 1.51598 20.0245 2.60219 20.3745 3.69052C20.3957 3.75416 20.4233 3.76901 20.4849 3.76901C21.2253 3.76901 21.9678 3.76901 22.7082 3.76901H23.9874C23.9874 3.76901 23.9896 3.77962 23.9917 3.78598C23.8474 3.88994 23.7053 3.99601 23.561 4.09997C22.7655 4.67913 21.9699 5.25618 21.1722 5.83111C21.1065 5.87778 21.0937 5.91597 21.1192 5.99446C21.4713 7.07006 21.8214 8.14778 22.1714 9.22551C22.1799 9.25308 22.1863 9.28066 22.199 9.32734C22.0187 9.1958 21.8532 9.077 21.6877 8.95607C20.907 8.38963 20.1263 7.82319 19.3477 7.25251C19.3223 7.23554 19.3032 7.22705 19.2841 7.22705C19.2629 7.22705 19.2417 7.23766 19.2162 7.25463C18.2849 7.93351 17.3535 8.61027 16.4222 9.28703C16.4095 9.29551 16.3967 9.304 16.3628 9.32734C16.4519 9.05579 16.5325 8.80757 16.6131 8.55935C16.8932 7.69803 17.1732 6.8367 17.4554 5.97537C17.4744 5.91385 17.466 5.88202 17.4129 5.84384C16.4795 5.1692 15.5481 4.49032 14.6168 3.81356C14.6041 3.80508 14.5913 3.79447 14.5807 3.76901H15.9321C16.6449 3.76901 17.3599 3.76901 18.0727 3.76901C18.1427 3.76901 18.1767 3.75416 18.2 3.67991C18.5479 2.60007 18.9001 1.52022 19.2523 0.440381C19.2607 0.414923 19.2692 0.389465 19.2862 0.342792M19.2862 0.0203247H19.2798C19.1441 0.0224462 19.0231 0.111549 18.9786 0.24096L18.9637 0.285512L18.9446 0.342792L18.7473 0.949541C18.48 1.76844 18.2042 2.6128 17.9369 3.44867C17.2665 3.44867 16.6004 3.44867 15.9321 3.44867H14.5807C14.4725 3.44867 14.3728 3.5017 14.3134 3.59081C14.254 3.67991 14.2413 3.79447 14.2837 3.89206C14.324 3.99177 14.3855 4.04481 14.428 4.07663L14.8968 4.41819C15.633 4.95281 16.367 5.48742 17.1032 6.01992C16.891 6.6691 16.6789 7.3204 16.4689 7.96958L16.3097 8.46389L16.0594 9.23187C16.017 9.3634 16.0615 9.50766 16.174 9.5904C16.2312 9.63283 16.2991 9.65405 16.367 9.65405C16.4307 9.65405 16.4943 9.63495 16.5495 9.59677L16.5792 9.57767C16.5961 9.56707 16.6068 9.55858 16.6152 9.55222L17.0608 9.22763C17.8033 8.68877 18.5458 8.14778 19.2883 7.60892C19.9014 8.05656 20.5146 8.50207 21.1277 8.94759L21.5032 9.22126L21.849 9.4716L22.0144 9.59252C22.0717 9.63283 22.1375 9.65405 22.2033 9.65405C22.269 9.65405 22.3306 9.63495 22.3878 9.59677C22.5003 9.51827 22.5512 9.37825 22.5151 9.24672L22.5045 9.20641C22.496 9.17671 22.4897 9.15337 22.4833 9.13004L22.3136 8.60815C22.0378 7.75955 21.7535 6.88549 21.4713 6.02204C22.0929 5.57228 22.7209 5.11616 23.3277 4.67489L23.7562 4.36515C23.8517 4.29514 23.9493 4.22513 24.0447 4.15512L24.1869 4.05117C24.2951 3.97268 24.3439 3.83478 24.3078 3.70537L24.3035 3.69052C24.2654 3.54838 24.1381 3.45079 23.9917 3.45079H22.7124C22.0208 3.45079 21.3292 3.45079 20.6376 3.45079C20.3554 2.57461 20.0669 1.68782 19.7869 0.828615L19.6256 0.334306C19.6193 0.315213 19.6129 0.296119 19.6023 0.270661L19.5896 0.236717C19.5429 0.109428 19.422 0.0266892 19.2883 0.0266892L19.2862 0.0203247Z" fill="white"/>
<path d="M16.3625 9.67272C16.2882 9.67272 16.2161 9.64938 16.1567 9.60483C16.0379 9.51573 15.9891 9.36298 16.0358 9.22296L16.4452 7.96067C16.6552 7.31573 16.8653 6.6708 17.0753 6.02586C16.3434 5.49549 15.6115 4.96512 14.8817 4.43262L14.4128 4.09106C14.3683 4.05924 14.3046 4.00408 14.2601 3.898C14.2155 3.79193 14.2283 3.671 14.2919 3.57553C14.3555 3.48007 14.4637 3.42279 14.5783 3.42279H15.9297C16.5916 3.42279 17.2535 3.42279 17.9175 3.42279C18.1912 2.57631 18.4734 1.70649 18.7237 0.938512L18.955 0.229932C19.0016 0.0920347 19.131 -0.0034327 19.2753 -0.0055542H19.2817C19.4238 -0.0055542 19.5532 0.0835487 19.6041 0.217203L19.6169 0.251147C19.6275 0.276605 19.6338 0.295698 19.6402 0.316913L19.8311 0.900325C20.1006 1.72771 20.3764 2.57843 20.6479 3.41854C21.3353 3.41854 22.0205 3.41854 22.7079 3.41854H23.9871C24.1441 3.41854 24.2799 3.52462 24.3202 3.67524L24.3245 3.6901C24.3627 3.82587 24.3096 3.97438 24.1951 4.05924L24.0529 4.16319C23.9574 4.2332 23.862 4.30321 23.7644 4.37322L23.3146 4.69993C22.7185 5.13271 22.1033 5.58035 21.4923 6.02162C21.7702 6.8681 22.0481 7.72518 22.3175 8.55469L22.5 9.11477C22.5085 9.1381 22.5148 9.16144 22.5212 9.19326L22.5318 9.23357C22.57 9.37359 22.5148 9.52421 22.396 9.60695C22.2772 9.68757 22.1139 9.68757 21.9972 9.60271L21.1104 8.9599C20.5015 8.5165 19.8927 8.07523 19.2838 7.63184C18.5455 8.16858 17.8072 8.70532 17.0689 9.24205L16.6234 9.56664C16.6234 9.56664 16.6022 9.58149 16.5852 9.5921L16.5555 9.6112C16.4983 9.6515 16.4304 9.67272 16.3604 9.67272H16.3625ZM14.5783 3.46734C14.4786 3.46734 14.3831 3.51613 14.328 3.60099C14.2728 3.68373 14.2622 3.78981 14.3004 3.88315C14.3386 3.97862 14.398 4.02953 14.4383 4.05711L14.9071 4.39868C15.6433 4.93329 16.3773 5.46791 17.1135 6.00041L17.1262 6.00889L17.122 6.02374C16.9098 6.67292 16.6977 7.32422 16.4877 7.9734L16.0782 9.23569C16.0379 9.35874 16.0803 9.49239 16.1843 9.57089C16.2861 9.64726 16.4304 9.64938 16.5343 9.57725L16.564 9.55816C16.581 9.54755 16.5895 9.53906 16.6001 9.5327L17.0456 9.20811C17.7881 8.66925 18.5307 8.12827 19.2711 7.58941L19.2838 7.58092L19.2965 7.58941C19.9096 8.03704 20.5227 8.48256 21.1359 8.92807L22.0226 9.57089C22.1245 9.64514 22.2687 9.64514 22.3706 9.57513C22.4745 9.503 22.5233 9.37147 22.4894 9.24842L22.4788 9.20811C22.4703 9.17841 22.4639 9.15507 22.4575 9.13174L22.2751 8.57166C22.0035 7.73579 21.7235 6.87234 21.4456 6.02374L21.4413 6.00889L21.4541 6.00041C22.0693 5.55701 22.6888 5.10726 23.2892 4.67023L23.7389 4.34352C23.8344 4.27351 23.932 4.2035 24.0275 4.13349L24.1696 4.02953C24.2693 3.9574 24.316 3.82587 24.282 3.70707L24.2778 3.69222C24.2417 3.56068 24.1229 3.46946 23.9871 3.46946H22.7079C22.0163 3.46946 21.3247 3.46946 20.6331 3.46946H20.6182L20.614 3.45461C20.3403 2.60813 20.0624 1.75317 19.7929 0.92154L19.602 0.338128C19.5956 0.319035 19.5893 0.299941 19.5787 0.274484L19.5659 0.24054C19.5214 0.123857 19.409 0.0453617 19.2838 0.0453617C19.1501 0.0474832 19.0377 0.130222 18.9974 0.251147L18.9634 0.350857L18.7661 0.957606C18.5137 1.72983 18.2294 2.60601 17.9557 3.45673L17.9515 3.47158H17.9366C17.2662 3.47158 16.6001 3.47158 15.9318 3.47158H14.5804L14.5783 3.46734ZM16.3222 9.38207L16.7571 8.04129C16.982 7.34968 17.2068 6.66019 17.4317 5.96858C17.4487 5.91555 17.4423 5.89433 17.3957 5.86039C16.6128 5.29395 15.83 4.72539 15.0493 4.15682L14.5995 3.83011C14.5847 3.81951 14.5698 3.80678 14.5571 3.77495L14.5444 3.74525H15.9276C16.6404 3.74525 17.3553 3.74525 18.0682 3.74525C18.1318 3.74525 18.1551 3.73465 18.1764 3.671C18.4628 2.77997 18.7577 1.87409 19.0441 0.997914L19.2286 0.431474C19.235 0.412381 19.2414 0.393287 19.2498 0.365708L19.2795 0.274484L19.3156 0.367829C19.3241 0.386923 19.3283 0.401773 19.3347 0.416624L19.4832 0.870624C19.7823 1.79135 20.0921 2.74179 20.3933 3.67949C20.4103 3.73465 20.4315 3.74313 20.4846 3.74313C21.2271 3.74313 21.9675 3.74313 22.71 3.74313H24.0062L24.019 3.78981L23.8577 3.90649C23.7644 3.97438 23.671 4.04439 23.5756 4.11227L23.1279 4.43898C22.4936 4.90147 21.8359 5.37881 21.1868 5.84554C21.1295 5.88797 21.1189 5.91555 21.1422 5.98343C21.4414 6.8978 21.7447 7.82914 22.0375 8.73077L22.1945 9.21448C22.2008 9.23145 22.2051 9.25054 22.2115 9.27388L22.239 9.37571L22.099 9.27388C21.9526 9.1678 21.8147 9.06809 21.679 8.96838L21.348 8.72653C20.6776 8.24071 20.0072 7.75276 19.3389 7.26482C19.2965 7.233 19.2774 7.233 19.2329 7.26694C18.45 7.83762 17.6651 8.40831 16.8801 8.97899L16.4389 9.29934C16.4389 9.29934 16.4219 9.31206 16.407 9.32055L16.3264 9.37571L16.3222 9.38207ZM14.6186 3.78981L14.6271 3.79617L15.0769 4.12288C15.8597 4.69144 16.6404 5.26 17.4232 5.82644C17.4826 5.87099 17.4975 5.9113 17.4741 5.98131C17.2471 6.6708 17.0244 7.36241 16.7995 8.05402L16.4028 9.27388L16.4092 9.26963L16.8504 8.94929C17.6354 8.37861 18.4203 7.81004 19.2032 7.23724C19.2647 7.19269 19.3029 7.19269 19.3602 7.23512C20.0284 7.72306 20.6988 8.21101 21.3692 8.69683L21.7002 8.93656C21.8381 9.03627 21.976 9.13598 22.1224 9.24205L22.1627 9.27176C22.1584 9.25691 22.1542 9.24205 22.1499 9.22933L21.9929 8.74562C21.7002 7.84399 21.3989 6.91477 21.0977 5.99828C21.0701 5.9113 21.0849 5.86463 21.1592 5.81159C21.8062 5.34486 22.4639 4.86753 23.0982 4.40504L23.5459 4.07833C23.6392 4.01044 23.7347 3.94255 23.828 3.87254L23.9468 3.78556H22.7058C21.9654 3.78556 21.2228 3.78556 20.4824 3.78556C20.4167 3.78556 20.3742 3.77071 20.3509 3.69222C20.0496 2.75451 19.7399 1.80408 19.4408 0.883353L19.2923 0.429353C19.2923 0.429353 19.2859 0.410259 19.2817 0.401773C19.2774 0.416624 19.2732 0.429353 19.2689 0.442082L19.0844 1.00852C18.8001 1.8847 18.5052 2.79058 18.2167 3.68161C18.1891 3.76859 18.1424 3.78556 18.0703 3.78556C17.3553 3.78556 16.6425 3.78556 15.9297 3.78556H14.6186V3.78981Z" fill="white"/>
<path d="M24.9466 12.8214C24.9126 12.8214 24.8787 12.8108 24.849 12.7896C24.7938 12.7472 24.7705 12.6772 24.7917 12.6093L25.2118 11.3194C25.4324 10.6427 25.6509 9.9659 25.8737 9.28914C25.1375 8.75664 24.4077 8.22627 23.68 7.69589L23.103 7.27584C23.0733 7.25462 23.0372 7.2228 23.0118 7.16127C22.9905 7.11248 22.9969 7.0552 23.0266 7.01065C23.0563 6.9661 23.1072 6.93852 23.1603 6.93852H24.5201C25.2245 6.93852 25.9288 6.93852 26.6332 6.93852C26.9174 6.05385 27.206 5.16919 27.4945 4.28452L27.6791 3.72233L27.713 3.62262C27.7342 3.55685 27.7957 3.51442 27.8636 3.5123C27.9315 3.5123 27.993 3.55473 28.0164 3.61625L28.0291 3.65232C28.0376 3.67353 28.044 3.6905 28.0503 3.70748L28.2137 4.21027C28.5086 5.12039 28.8056 6.0284 29.0983 6.93852C29.8069 6.93852 30.5134 6.93852 31.2198 6.93852H32.5712C32.6434 6.93852 32.7091 6.98731 32.7282 7.05732C32.7452 7.12097 32.7261 7.20583 32.6709 7.24614C32.6709 7.24614 32.3421 7.48586 32.2403 7.56012L31.8372 7.85288C31.1795 8.33022 30.5219 8.80968 29.8621 9.28489C30.1612 10.195 30.4561 11.1051 30.7531 12.0174L30.9122 12.5053C30.9186 12.5265 30.9249 12.5478 30.9313 12.5732L30.9419 12.6135C30.961 12.6793 30.9334 12.7493 30.8783 12.7896C30.8507 12.8087 30.8189 12.8193 30.787 12.8193C30.7552 12.8193 30.7213 12.8087 30.6916 12.7896L29.7899 12.1362C29.1493 11.6716 28.5107 11.207 27.87 10.7402C27.1147 11.2897 26.3658 11.8349 25.617 12.378L25.1014 12.7514L25.0378 12.7939C25.0102 12.8129 24.9784 12.8214 24.9466 12.8214Z" fill="black"/>
<path d="M27.868 3.67299C27.8828 3.7133 27.8934 3.73664 27.8998 3.75785C28.2541 4.84618 28.6084 5.93239 28.9584 7.02072C28.9797 7.08436 29.0072 7.09921 29.0688 7.09921C29.8092 7.09921 30.5517 7.09921 31.2921 7.09921H32.5714C32.5714 7.09921 32.5735 7.10982 32.5756 7.11618C32.4313 7.22014 32.2892 7.32621 32.1449 7.43017C31.3494 8.00933 30.5538 8.58638 29.7561 9.16131C29.6904 9.20798 29.6776 9.24617 29.7031 9.32466C30.0553 10.4003 30.4053 11.478 30.7554 12.5557C30.7638 12.5833 30.7702 12.6109 30.7829 12.6575C30.6026 12.526 30.4371 12.4072 30.2716 12.2863C29.4909 11.7198 28.7102 11.1534 27.9316 10.5827C27.9062 10.5657 27.8871 10.5573 27.868 10.5573C27.8468 10.5573 27.8256 10.5679 27.8001 10.5848C26.8688 11.2637 25.9374 11.9405 25.0061 12.6172C24.9934 12.6257 24.9806 12.6342 24.9467 12.6575C25.0358 12.386 25.1164 12.1378 25.197 11.8896C25.4771 11.0282 25.7571 10.1669 26.0393 9.30557C26.0584 9.24405 26.0499 9.21222 25.9968 9.17404C25.0634 8.4994 24.132 7.82052 23.2007 7.14376C23.188 7.13528 23.1752 7.12467 23.1646 7.09921H24.516C25.2288 7.09921 25.9438 7.09921 26.6566 7.09921C26.7266 7.09921 26.7606 7.08436 26.7839 7.01011C27.1318 5.93027 27.484 4.85042 27.8362 3.77058C27.8447 3.74512 27.8531 3.71967 27.8701 3.67299M27.8701 3.35052H27.8637C27.728 3.35265 27.607 3.44175 27.5625 3.57116L27.5476 3.61571C27.5392 3.63905 27.5349 3.65602 27.5286 3.67299L27.327 4.29035C27.0618 5.105 26.7881 5.94724 26.5187 6.77887C25.8483 6.77887 25.1822 6.77887 24.5139 6.77887H23.1625C23.0543 6.77887 22.9546 6.8319 22.8952 6.92313C22.8358 7.01223 22.8231 7.12679 22.8655 7.22438C22.9079 7.32409 22.9673 7.37713 23.0098 7.40895L23.468 7.74203C24.2063 8.27876 24.9467 8.81763 25.6871 9.35224C25.4749 9.9993 25.2649 10.6485 25.0549 11.2955L24.8937 11.7941L24.6433 12.5621C24.6009 12.6936 24.6454 12.8379 24.7579 12.9206C24.8152 12.963 24.883 12.9842 24.9509 12.9842C25.0146 12.9842 25.0782 12.9652 25.1334 12.927L25.1631 12.9058C25.1801 12.8951 25.1885 12.8867 25.1991 12.8803L25.6213 12.5748C26.3723 12.0296 27.1212 11.4843 27.8722 10.9391C28.4832 11.3868 29.0963 11.8302 29.7095 12.2757L30.0871 12.5493L30.4329 12.7997L30.5984 12.9206C30.6556 12.9609 30.7214 12.9821 30.7872 12.9821C30.8529 12.9821 30.9145 12.963 30.9717 12.9248C31.0842 12.8464 31.1351 12.7063 31.099 12.5748L31.0884 12.5345C31.0799 12.5048 31.0736 12.4815 31.0672 12.4581L30.8975 11.9362C30.6217 11.0876 30.3374 10.2136 30.0553 9.35012C30.6769 8.90036 31.3048 8.44636 31.9116 8.00509L32.3401 7.69323C32.4377 7.62322 32.5353 7.55109 32.6308 7.48108L32.7708 7.37925C32.879 7.30075 32.9278 7.16498 32.8917 7.03557V7.02708L32.8875 7.0186C32.8493 6.87645 32.722 6.77887 32.5756 6.77887H31.2963C30.6047 6.77887 29.9131 6.77887 29.2215 6.77887C28.9372 5.89632 28.6466 5.00317 28.3644 4.13972L28.2096 3.66239C28.2032 3.64329 28.1968 3.6242 28.1862 3.59874L28.1735 3.5648C28.1268 3.43751 28.0059 3.35477 27.8722 3.35477L27.8701 3.35052Z" fill="white"/>
<path d="M24.9468 13.0038C24.8726 13.0038 24.8004 12.9804 24.741 12.9359C24.6222 12.8468 24.5734 12.694 24.6201 12.554L25.0444 11.2472C25.2481 10.6171 25.4539 9.987 25.6596 9.35692C24.9235 8.82442 24.1894 8.28981 23.4533 7.75519L22.995 7.42211C22.9505 7.39029 22.8868 7.33513 22.8423 7.22906C22.7977 7.12298 22.8105 7.00206 22.8741 6.90659C22.9378 6.81112 23.046 6.75384 23.1605 6.75384H24.5119C25.1738 6.75384 25.8357 6.75384 26.4998 6.75384C26.7607 5.94555 27.0259 5.12665 27.2847 4.33533L27.5032 3.66282C27.5096 3.64585 27.5138 3.62887 27.5223 3.60554L27.5372 3.56099C27.5838 3.42309 27.7133 3.32762 27.8575 3.3255H27.8639C28.006 3.3255 28.1354 3.4146 28.1863 3.55038L28.1991 3.58432C28.2097 3.60978 28.216 3.62887 28.2224 3.65009L28.3985 4.18895C28.6722 5.03118 28.9543 5.89676 29.2301 6.75384C29.9175 6.75384 30.6027 6.75384 31.2901 6.75384H32.5694C32.7264 6.75384 32.8621 6.85992 32.9024 7.01054L32.9067 7.02751C32.9427 7.16329 32.8918 7.31179 32.7773 7.39453L32.6012 7.52182C32.5163 7.58335 32.4315 7.64699 32.3445 7.70851L31.8459 8.06917C31.2646 8.49135 30.6664 8.92625 30.0724 9.3548C30.3609 10.2373 30.6515 11.1347 30.9103 11.9261L31.0801 12.4479C31.0886 12.4713 31.0949 12.4946 31.1013 12.5243L31.1119 12.5646C31.1501 12.7046 31.0949 12.8553 30.9761 12.938C30.8594 13.0186 30.694 13.0186 30.5773 12.9338L29.5738 12.2061C29.0031 11.7924 28.4324 11.3766 27.8639 10.9608C27.1192 11.5039 26.3725 12.047 25.6257 12.588L25.2035 12.8935C25.2035 12.8935 25.1823 12.9083 25.1653 12.9189L25.1356 12.9401C25.0784 12.9804 25.0105 13.0017 24.9405 13.0017L24.9468 13.0038ZM23.1626 6.79839C23.0629 6.79839 22.9675 6.84719 22.9123 6.93205C22.855 7.01479 22.8465 7.12086 22.8847 7.21421C22.925 7.30967 22.9823 7.35847 23.0226 7.38817L23.4809 7.72124C24.2191 8.25798 24.9595 8.79684 25.7 9.33146L25.7127 9.33995L25.7084 9.3548C25.5005 9.98912 25.2947 10.6235 25.089 11.2599L24.6647 12.5667C24.6244 12.6898 24.6668 12.8234 24.7707 12.9019C24.8726 12.9783 25.0168 12.9804 25.1208 12.9083L25.1505 12.8871C25.1675 12.8765 25.1759 12.8701 25.1865 12.8616L25.6087 12.5561C26.3597 12.0109 27.1086 11.4657 27.8596 10.9205L27.8724 10.912L27.8851 10.9205C28.4579 11.3384 29.0328 11.7563 29.6077 12.1743L30.6112 12.9019C30.713 12.9762 30.8573 12.9783 30.9591 12.9062C31.0631 12.8341 31.1119 12.7025 31.0779 12.5795L31.0673 12.5392C31.0589 12.5095 31.0525 12.4861 31.0461 12.4649L30.8764 11.943C30.6176 11.1475 30.3248 10.2437 30.0342 9.35692L30.0299 9.34207L30.0427 9.33358C30.6409 8.9008 31.2434 8.46377 31.829 8.03735L32.3275 7.67669C32.4124 7.61517 32.4972 7.55152 32.5842 7.49L32.7603 7.36271C32.86 7.29058 32.9046 7.16117 32.8727 7.04236L32.8685 7.02539C32.8345 6.89386 32.7136 6.80264 32.5778 6.80264H31.2986C30.607 6.80264 29.9154 6.80264 29.2238 6.80264H29.2089L29.2047 6.78778C28.9268 5.92646 28.6425 5.05452 28.3688 4.20804L28.1927 3.66918C28.1863 3.65009 28.18 3.631 28.1694 3.60766L28.1566 3.57159C28.1121 3.45491 27.9997 3.37642 27.8745 3.37642C27.7408 3.37854 27.6284 3.46128 27.5881 3.5822L27.5732 3.62675C27.5647 3.65009 27.5605 3.66706 27.5541 3.68403L27.3356 4.35655C27.0768 5.15423 26.8074 5.97737 26.5464 6.78991L26.5422 6.80476H26.5273C25.8569 6.80476 25.1908 6.80476 24.5225 6.80476H23.1711L23.1626 6.79839ZM24.9065 12.7131L25.3414 11.3723C25.5663 10.6807 25.7912 9.99125 26.0161 9.29964C26.033 9.2466 26.0267 9.22539 25.98 9.19144C25.1759 8.61015 24.3761 8.02886 23.5742 7.44545L23.1839 7.16117C23.169 7.15056 23.1542 7.13783 23.1414 7.10601L23.1287 7.07631H24.5119C25.2247 7.07631 25.9397 7.07631 26.6525 7.07631C26.7161 7.07631 26.7395 7.0657 26.7607 7.00206C27.045 6.12163 27.3356 5.22636 27.6178 4.36291L27.813 3.76253C27.8172 3.74768 27.8236 3.73071 27.8299 3.70949L27.8639 3.60554L27.8999 3.70101C27.9084 3.7201 27.9127 3.73495 27.9169 3.7498L28.0782 4.24835C28.373 5.15423 28.6764 6.09193 28.9734 7.01479C28.9904 7.06994 29.0116 7.07843 29.0646 7.07843C29.8072 7.07843 30.5476 7.07843 31.288 7.07843H32.5842L32.5969 7.1251L32.4357 7.24179C32.3424 7.30967 32.249 7.37968 32.1535 7.44757L31.7102 7.77004C31.0737 8.23253 30.4139 8.71198 29.7647 9.18083C29.7075 9.22326 29.6969 9.25084 29.7202 9.31873C30.0151 10.2161 30.31 11.1284 30.5964 12.0109L30.7703 12.5498C30.7767 12.5667 30.7809 12.5858 30.7873 12.6092L30.8149 12.711L29.8496 12.0109C29.2047 11.5421 28.5597 11.0732 27.9148 10.6022C27.8724 10.5725 27.8554 10.5704 27.8087 10.6044C27.0089 11.1878 26.207 11.7712 25.4051 12.3525L25.0147 12.6368C25.0147 12.6368 24.9977 12.6474 24.985 12.658L24.9023 12.7152L24.9065 12.7131ZM23.2029 7.12086C23.2029 7.12086 23.2093 7.1251 23.2114 7.12722L23.6018 7.4115C24.4037 7.99492 25.2056 8.57621 26.0076 9.1575C26.067 9.19993 26.0818 9.24236 26.0585 9.31237C25.8315 10.0019 25.6087 10.6935 25.3838 11.3851L24.9871 12.6049C24.9871 12.6049 24.9914 12.6028 24.9935 12.6007L25.3838 12.3164C26.1858 11.7351 26.9877 11.1517 27.7875 10.5683C27.849 10.5237 27.8872 10.5237 27.9445 10.5662C28.5894 11.0371 29.2344 11.506 29.8793 11.9748L30.747 12.6049C30.7428 12.5901 30.7385 12.5752 30.7343 12.5625L30.5603 12.0236C30.2739 11.1411 29.9769 10.2289 29.6841 9.33146C29.6565 9.24448 29.6714 9.19781 29.7456 9.14477C30.3948 8.67592 31.0546 8.19646 31.6911 7.73397L32.1345 7.4115C32.2278 7.34362 32.3211 7.27573 32.4145 7.20572L32.5333 7.11874H31.2922C30.5518 7.11874 29.8093 7.11874 29.0689 7.11874C29.0031 7.11874 28.9607 7.10389 28.9374 7.02539C28.6403 6.10254 28.3348 5.16696 28.0421 4.26108L27.8809 3.76253C27.8809 3.76253 27.8745 3.74344 27.8702 3.73495C27.866 3.7498 27.8618 3.76253 27.8575 3.77526L27.6623 4.37564C27.3802 5.24121 27.0895 6.13436 26.8053 7.01479C26.7777 7.10177 26.731 7.11874 26.6589 7.11874C25.9439 7.11874 25.2311 7.11874 24.5183 7.11874H23.2072L23.2029 7.12086Z" fill="white"/>
<path d="M7.57134 12.8225C7.53739 12.8225 7.50345 12.8119 7.47375 12.7907C7.41859 12.7482 7.39525 12.6782 7.41647 12.6103L7.83016 11.3374C8.05292 10.6543 8.27355 9.97119 8.49843 9.28807C7.74106 8.74072 6.99217 8.1955 6.24116 7.65027L5.72775 7.27689C5.70018 7.25567 5.66411 7.22385 5.63865 7.16233C5.61744 7.11353 5.6238 7.05625 5.6535 7.0117C5.6832 6.96715 5.73412 6.93957 5.78716 6.93957H7.14704C7.85137 6.93957 8.55571 6.93957 9.26005 6.93957C9.53584 6.08036 9.81588 5.22328 10.0938 4.36619L10.3038 3.72126L10.3378 3.62155C10.359 3.55578 10.4205 3.51335 10.4884 3.51123H10.4905C10.5584 3.51123 10.6178 3.55366 10.6411 3.61731L10.656 3.65549C10.6645 3.67671 10.6708 3.69368 10.6751 3.71065L10.8384 4.21345C11.1333 5.12145 11.4282 6.03157 11.7231 6.93957C12.4317 6.93957 13.1381 6.93957 13.8446 6.93957H15.196C15.2681 6.93957 15.3318 6.98837 15.3509 7.05837C15.3678 7.12202 15.3487 7.20688 15.2936 7.24719C15.2936 7.24719 14.9626 7.48904 14.8629 7.56117L14.4174 7.88576C13.7746 8.35461 13.1297 8.82134 12.4847 9.28807C12.7796 10.1855 13.0703 11.085 13.363 11.9845L13.5327 12.5085C13.5391 12.5297 13.5455 12.5488 13.5518 12.5764L13.5624 12.6188C13.5815 12.6846 13.554 12.7546 13.4988 12.7949C13.4712 12.814 13.4394 12.8246 13.4076 12.8246C13.3758 12.8246 13.3418 12.814 13.3121 12.7949L12.4465 12.1648C11.7952 11.6917 11.1418 11.2186 10.4926 10.7434C9.70556 11.3162 8.92273 11.8848 8.14202 12.4533L7.72621 12.7546L7.66256 12.797C7.63498 12.8161 7.60316 12.8246 7.57134 12.8246V12.8225Z" fill="black"/>
<path d="M10.491 3.67492C10.5058 3.71522 10.5164 3.73856 10.5228 3.75977C10.8771 4.8481 11.2314 5.93431 11.5814 7.02264C11.6026 7.08628 11.6302 7.10113 11.6917 7.10113C12.4321 7.10113 13.1747 7.10113 13.9151 7.10113H15.1943C15.1943 7.10113 15.1965 7.11174 15.1986 7.11811C15.0543 7.22206 14.9122 7.32813 14.7679 7.43209C13.9724 8.01126 13.1768 8.5883 12.3791 9.16323C12.3133 9.2099 12.3006 9.24809 12.3261 9.32659C12.6782 10.4022 13.0283 11.4799 13.3783 12.5576C13.3868 12.5852 13.3932 12.6128 13.4059 12.6595C13.2256 12.5279 13.0601 12.4091 12.8946 12.2882C12.1139 11.7218 11.3332 11.1553 10.5546 10.5846C10.5313 10.5677 10.5101 10.5592 10.491 10.5592C10.4698 10.5592 10.4485 10.5698 10.4231 10.5868C9.49175 11.2656 8.56041 11.9424 7.62908 12.6192C7.61635 12.6276 7.60362 12.6361 7.56967 12.6595C7.65878 12.3879 7.73939 12.1397 7.82001 11.8915C8.10005 11.0301 8.38009 10.1688 8.66225 9.30749C8.68134 9.24597 8.67285 9.21415 8.61982 9.17596C7.68636 8.50132 6.75502 7.82244 5.82368 7.14569C5.81095 7.1372 5.79822 7.12659 5.78762 7.10113H7.13901C7.85183 7.10113 8.56678 7.10113 9.2796 7.10113C9.34961 7.10113 9.38143 7.08628 9.40689 7.01203C9.75482 5.93219 10.107 4.85235 10.4592 3.7725C10.4676 3.74705 10.4761 3.72159 10.491 3.67492ZM10.491 3.35245H10.4846C10.3488 3.35457 10.2279 3.44367 10.1834 3.57308L10.1685 3.61551C10.16 3.63885 10.1537 3.65582 10.1494 3.67492L9.95636 4.27106C9.68905 5.0942 9.41113 5.9428 9.1417 6.78079C8.47131 6.78079 7.80516 6.78079 7.13689 6.78079H5.7855C5.6773 6.78079 5.57759 6.83383 5.51819 6.92293C5.45878 7.01203 5.44606 7.12659 5.48849 7.22418C5.53092 7.32389 5.59032 7.37693 5.63275 7.40875L6.1016 7.75031C6.83776 8.28493 7.5718 8.81955 8.30796 9.35204C8.09581 10.0012 7.88366 10.6525 7.67363 11.3017L7.51452 11.796L7.50603 11.8215L7.26418 12.564C7.22175 12.6955 7.2663 12.8398 7.37874 12.9225C7.43602 12.965 7.50391 12.9862 7.5718 12.9862C7.63544 12.9862 7.69909 12.9671 7.75424 12.9289L7.78395 12.9077C7.80092 12.8971 7.8094 12.8907 7.82001 12.8822L8.26553 12.5576C9.00805 12.0188 9.75057 11.4778 10.4931 10.9389C11.1062 11.3866 11.7193 11.8321 12.3324 12.2776L12.7079 12.5491L13.0537 12.7995L13.2192 12.9204C13.2765 12.9607 13.3423 12.9819 13.408 12.9819C13.4738 12.9819 13.5353 12.9628 13.5926 12.9246C13.705 12.8462 13.756 12.7061 13.7199 12.5746L13.7093 12.5364C13.7008 12.5067 13.6944 12.4834 13.6881 12.46L13.5268 11.9615C13.2489 11.1065 12.9625 10.2219 12.6761 9.35204C13.2977 8.90229 13.9257 8.44829 14.5324 8.00489L14.9589 7.69515C15.0543 7.62514 15.1519 7.55513 15.2474 7.48513L15.3895 7.38117C15.4977 7.30268 15.5465 7.1669 15.5104 7.03749V7.029L15.5062 7.02052C15.468 6.87838 15.3407 6.78079 15.1943 6.78079H13.9151C13.2235 6.78079 12.5319 6.78079 11.8402 6.78079C11.5581 5.90461 11.2696 5.01782 10.9895 4.15862L10.8283 3.66219C10.8219 3.64309 10.8156 3.624 10.805 3.59854L10.7922 3.5646C10.7456 3.43731 10.6246 3.35457 10.491 3.35457V3.35245Z" fill="white"/>
<path d="M7.57177 13.0051C7.49752 13.0051 7.42539 12.9817 7.36599 12.9372C7.24718 12.8481 7.19839 12.6953 7.24506 12.5553L7.66724 11.257C7.87303 10.6248 8.07881 9.99254 8.2846 9.36034C7.57814 8.84906 6.87168 8.33565 6.16734 7.82225L5.62212 7.42553C5.57756 7.39371 5.51392 7.33855 5.46937 7.23247C5.42482 7.1264 5.43755 7.00547 5.50119 6.91001C5.56484 6.81454 5.67303 6.75726 5.78759 6.75726H7.13899C7.80089 6.75726 8.4628 6.75726 9.12683 6.75726C9.40263 5.90017 9.68691 5.03036 9.93724 4.26238L10.1303 3.66624C10.1367 3.64926 10.1409 3.63229 10.1494 3.60683L10.1642 3.5644C10.2109 3.42651 10.3403 3.33104 10.4846 3.32892H10.491C10.6331 3.32892 10.7625 3.41802 10.8134 3.55168L10.8262 3.58562C10.8368 3.61108 10.8431 3.63017 10.8495 3.65139L11.0107 4.14782C11.2886 5.00278 11.575 5.8832 11.8572 6.75514C12.5446 6.75514 13.2298 6.75514 13.9172 6.75514H15.1964C15.3513 6.75514 15.4892 6.86121 15.5295 7.01184L15.5338 7.02881C15.5698 7.16459 15.5189 7.31309 15.4043 7.39583L15.2622 7.49978C15.1667 7.56979 15.0713 7.6398 14.9737 7.70981L14.526 8.03652C13.9299 8.46931 13.3125 8.91694 12.7037 9.35822C12.9901 10.2302 13.2744 11.1042 13.548 11.9528L13.7093 12.4514C13.7178 12.4747 13.7241 12.498 13.7305 12.5299L13.7411 12.5702C13.7793 12.7102 13.7241 12.8608 13.6053 12.9435C13.4886 13.0242 13.3232 13.0242 13.2086 12.9393L12.3218 12.2965C11.7129 11.8531 11.1041 11.4118 10.4952 10.9663C9.75692 11.503 9.01863 12.0398 8.28035 12.5765L7.83484 12.9011C7.83484 12.9011 7.81362 12.916 7.79877 12.9266L7.76907 12.9478C7.71179 12.9881 7.6439 13.0093 7.57389 13.0093L7.57177 13.0051ZM5.78759 6.79969C5.68788 6.79969 5.59242 6.84848 5.53726 6.93334C5.4821 7.01608 5.47149 7.12216 5.50968 7.2155C5.54786 7.31097 5.60727 7.36189 5.64757 7.38947L6.1928 7.78619C6.90138 8.30171 7.61208 8.81723 8.32278 9.33276L8.33551 9.34124L8.33127 9.35609C8.12336 9.99254 7.91546 10.6311 7.70967 11.2676L7.28749 12.5659C7.24718 12.689 7.28961 12.8226 7.39357 12.9011C7.4954 12.9775 7.63966 12.9796 7.74361 12.9075L7.77331 12.8863C7.79029 12.8757 7.79877 12.8693 7.80938 12.8608L8.25489 12.5362C8.99742 11.9974 9.73994 11.4564 10.4825 10.9175L10.4952 10.909L10.5079 10.9175C11.121 11.3652 11.7342 11.8107 12.3473 12.2562L13.2341 12.899C13.3359 12.9732 13.4801 12.9754 13.582 12.9032C13.6881 12.8311 13.7347 12.6996 13.7008 12.5765L13.6902 12.5362C13.6817 12.5065 13.6753 12.4832 13.669 12.4598L13.5077 11.9613C13.2319 11.1085 12.9455 10.228 12.657 9.35185L12.6528 9.337L12.6655 9.32851C13.2807 8.88512 13.9002 8.43324 14.5006 7.99834L14.9482 7.67162C15.0437 7.60162 15.1413 7.53161 15.2367 7.4616L15.3789 7.35764C15.4807 7.28339 15.5253 7.15822 15.4934 7.0373L15.4892 7.02033C15.4531 6.88879 15.3343 6.79757 15.1986 6.79757H13.9193C13.2277 6.79757 12.5361 6.79757 11.8445 6.79757H11.8296L11.8254 6.78272C11.5432 5.90654 11.2547 5.01975 10.9747 4.16055L10.8134 3.66412C10.8071 3.64502 10.8007 3.62593 10.7901 3.60047L10.7774 3.56653C10.7328 3.44984 10.6204 3.37135 10.4952 3.37135C10.3637 3.37347 10.2491 3.45621 10.2088 3.57713L10.1939 3.61956C10.1855 3.6429 10.1791 3.65987 10.1749 3.67684L9.98179 4.27298C9.72934 5.04521 9.44506 5.92139 9.16714 6.78272L9.1629 6.79757H9.14805C8.47765 6.79757 7.8115 6.79757 7.14323 6.79757H5.79184L5.78759 6.79969ZM7.53146 12.7144L7.96849 11.3736C8.19337 10.682 8.41825 9.99254 8.64313 9.30094C8.6601 9.2479 8.65374 9.22668 8.60706 9.19274C7.80514 8.61357 7.00533 8.03228 6.20553 7.45099L5.80881 7.16246C5.79396 7.15186 5.77911 7.13913 5.76638 7.10731L5.75365 7.07761H7.13687C7.84969 7.07761 8.56463 7.07761 9.27746 7.07761C9.3411 7.07761 9.36444 7.067 9.38565 7.00335C9.66993 6.12293 9.96058 5.22766 10.2427 4.36421L10.4379 3.76383C10.4422 3.74898 10.4485 3.732 10.4549 3.71079L10.4888 3.60683L10.5249 3.7023C10.5334 3.7214 10.5376 3.73625 10.5419 3.7511L10.6904 4.2051C10.9895 5.12583 11.2992 6.07626 11.6005 7.01396C11.6175 7.06912 11.6366 7.07761 11.6917 7.07761C12.4342 7.07761 13.1746 7.07761 13.9172 7.07761H15.2134L15.224 7.12216L15.2134 7.13489L15.0691 7.23884C14.9737 7.30885 14.8782 7.37886 14.7827 7.44887L14.3309 7.7777C13.6965 8.23806 13.041 8.7154 12.3939 9.18213C12.3367 9.22456 12.326 9.25214 12.3494 9.32003C12.6443 10.2174 12.9392 11.1297 13.2256 12.0122L13.4016 12.5511C13.408 12.5702 13.4123 12.5871 13.4186 12.6126L13.4462 12.7144L12.4639 12.0016C11.8233 11.537 11.1826 11.0724 10.544 10.6035C10.5016 10.5738 10.4846 10.5717 10.4379 10.6057C9.66357 11.17 8.8871 11.7343 8.11063 12.2986L7.64178 12.6381C7.64178 12.6381 7.62693 12.6487 7.6142 12.6571L7.52934 12.7165L7.53146 12.7144ZM5.8279 7.12216L5.83639 7.12852L6.23311 7.41704C7.03291 7.99834 7.83272 8.57963 8.63252 9.15879C8.69192 9.20122 8.70677 9.24366 8.68344 9.31366C8.45644 10.0032 8.23368 10.6948 8.0088 11.3864L7.61208 12.6062C7.61208 12.6062 7.61632 12.6041 7.61845 12.602L8.0873 12.2625C8.86376 11.6982 9.63811 11.136 10.4146 10.5696C10.4761 10.525 10.5143 10.525 10.5716 10.5675C11.2101 11.0342 11.8508 11.4988 12.4915 11.9655L13.3741 12.6062C13.3698 12.5914 13.3656 12.5765 13.3613 12.5638L13.1874 12.0249C12.901 11.1424 12.604 10.2302 12.3112 9.33276C12.2836 9.24578 12.2985 9.1991 12.3727 9.14607C13.0198 8.67934 13.6753 8.20412 14.3096 7.74163L14.7615 7.4128C14.857 7.34279 14.9525 7.27278 15.0479 7.20277L15.1604 7.12004H13.9193C13.1789 7.12004 12.4364 7.12004 11.696 7.12004C11.6302 7.12004 11.5878 7.10518 11.5644 7.02669C11.2632 6.08899 10.9534 5.13856 10.6543 4.21783L10.5058 3.76383C10.5058 3.76383 10.4994 3.74473 10.4952 3.73625C10.491 3.7511 10.4867 3.76383 10.4825 3.77655L10.2873 4.37694C10.0051 5.24251 9.71449 6.13566 9.43021 7.01608C9.40263 7.10306 9.35595 7.12004 9.28382 7.12004C8.56888 7.12004 7.85605 7.12004 7.14111 7.12004H5.83002L5.8279 7.12216Z" fill="white"/>
<path fill-rule="evenodd" clip-rule="evenodd" d="M18.8538 62.8301C18.107 61.956 17.199 60.9398 16.1234 60.0276C14.4304 58.5743 12.555 57.5645 10.4547 56.4889C7.93652 55.2033 5.33132 53.8731 3.37106 51.5607C2.08755 50.0438 1.20713 48.1344 0.753132 45.8835C0.367019 43.9636 0.303374 41.7975 0.568561 39.6145C0.763739 38.0425 1.12652 36.4704 1.62295 35.066C1.95602 34.1241 2.17029 33.4558 2.34426 32.8257C3.05284 30.2163 2.73249 27.7553 1.33867 25.0844C0.990739 24.4182 0.577047 23.8072 0.110318 23.1326L0 22.9735L0.159112 22.8653C0.961039 22.3201 1.80752 21.7282 2.5755 21.0281C3.79748 19.9291 4.79034 18.6562 5.5265 17.2433C6.02081 16.2971 6.38147 15.3043 6.73788 14.2838L6.83122 14.0144L7.04337 14.2032C8.102 15.1409 9.30277 16.2059 10.896 16.5666C11.3139 16.662 11.7382 16.7087 12.1944 16.7087C12.9157 16.7087 13.7028 16.5899 14.6044 16.348C16.1637 15.9301 17.6042 15.7264 19.0044 15.7264C20.4046 15.7264 21.8408 15.9301 23.3874 16.348C24.289 16.592 25.0761 16.7087 25.7974 16.7087C26.2535 16.7087 26.68 16.662 27.0958 16.5666C28.689 16.2038 29.8898 15.1409 30.9484 14.2011L31.1606 14.0123L31.2539 14.2817C31.6103 15.3021 31.971 16.295 32.4653 17.2412C33.2014 18.6541 34.1943 19.9291 35.4142 21.0259C36.1843 21.7282 37.0307 22.3201 37.8327 22.8653L37.9918 22.9735L37.8815 23.1326C37.4147 23.8051 37.001 24.4182 36.6531 25.0844C35.2614 27.7532 34.9411 30.2141 35.6496 32.8257C35.8215 33.4558 36.0379 34.1241 36.371 35.066C36.8653 36.4704 37.2302 38.0425 37.4253 39.6145C37.6927 41.7975 37.629 43.9636 37.2429 45.8835C36.7889 48.1323 35.9085 50.0417 34.625 51.5585C32.6626 53.871 30.0574 55.2011 27.5392 56.4889C25.4389 57.5645 23.5635 58.5722 21.8705 60.0254C20.7949 60.9377 19.8869 61.956 19.1402 62.8301L18.9959 62.9998L18.8516 62.8301H18.8538Z" fill="white"/>
<path fill-rule="evenodd" clip-rule="evenodd" d="M18.9982 62.7071C18.139 61.6994 17.2607 60.7426 16.2466 59.8813C14.5091 58.3878 12.5679 57.3567 10.5419 56.3193C7.994 55.0167 5.44396 53.7099 3.51552 51.4356C0.812727 48.2428 0.267502 43.654 0.757568 39.638C0.954868 38.0468 1.31552 36.5066 1.80135 35.1298C2.0835 34.3321 2.3296 33.5938 2.5269 32.8767C3.29488 30.0445 2.84088 27.5518 1.50646 24.9975C1.14368 24.3038 0.708774 23.6652 0.265381 23.0266C1.11398 22.4496 1.94136 21.8662 2.70298 21.1724C3.92496 20.0735 4.93268 18.7964 5.69429 17.3346C6.19709 16.3694 6.55987 15.3701 6.91628 14.3497C8.09583 15.3935 9.26265 16.3948 10.8538 16.7576C11.9782 17.0164 13.2002 16.9294 14.6555 16.537C17.702 15.7202 20.2944 15.7138 23.3409 16.537C24.7963 16.9294 26.0182 17.0164 27.1426 16.7576C28.7338 16.3948 29.9006 15.3935 31.0801 14.3497C31.4366 15.3701 31.7993 16.3694 32.3021 17.3346C33.0637 18.7964 34.0715 20.0735 35.2934 21.1724C36.0551 21.8662 36.8846 22.4496 37.731 23.0266C37.2898 23.6652 36.8527 24.3038 36.49 24.9975C35.1577 27.5518 34.7037 30.0403 35.4695 32.8767C35.6668 33.5959 35.9108 34.3321 36.1951 35.1298C36.6809 36.5045 37.0437 38.0468 37.2388 39.638C37.731 43.654 37.1837 48.2428 34.4809 51.4356C32.5525 53.7077 30.0045 55.0167 27.4545 56.3193C25.4285 57.3567 23.4873 58.3899 21.7498 59.8813C20.7357 60.7405 19.8574 61.6994 18.9982 62.7071Z" fill="white"/>
<path fill-rule="evenodd" clip-rule="evenodd" d="M18.9981 61.8708C17.494 60.1142 15.8286 58.678 13.845 57.4857C10.4739 55.4596 6.55553 54.1761 3.93123 51.0851C2.32314 49.1864 1.49363 46.7127 1.22844 44.133C0.920827 41.0865 1.40029 37.8936 2.31465 35.3075C2.88533 33.674 3.32236 32.3035 3.44541 30.8969C3.62362 28.7479 2.97232 26.6285 1.99006 24.7425C1.70154 24.1888 1.37483 23.6732 1.02478 23.1641C2.47376 22.1818 3.75727 21.0702 4.83287 19.6827C5.87665 18.3377 6.59583 16.8887 7.16015 15.2912C9.58078 17.4169 11.7108 17.89 14.7933 17.0605C17.9013 16.2183 20.0864 16.2183 23.1944 17.0605C26.277 17.89 28.4091 17.4169 30.8276 15.2912C31.3919 16.8887 32.1111 18.3377 33.1549 19.6827C34.2305 21.0702 35.514 22.1818 36.963 23.1641C36.6129 23.6732 36.2883 24.1888 35.9977 24.7425C35.0154 26.6285 34.3578 28.7479 34.5423 30.8969C34.6654 32.3035 35.1003 33.674 35.6731 35.3075C36.5874 37.8936 37.0669 41.0865 36.755 44.133C36.4962 46.7127 35.6688 49.1885 34.0586 51.0851C31.4365 54.174 27.518 55.4575 24.1449 57.4857C22.1613 58.678 20.4959 60.1142 18.9917 61.8708H18.9981Z" fill="black"/>
<path fill-rule="evenodd" clip-rule="evenodd" d="M30.6364 16.6387V52.8484C29.4442 53.6439 28.1352 54.3143 26.7838 55.0059C26.1092 55.3518 25.4197 55.7039 24.7408 56.0794V45.2174C23.6907 45.9599 22.4263 46.3905 21.2891 47.01C20.3981 47.4958 19.6938 48.0856 18.9979 48.8154C18.3042 48.0856 17.5977 47.4958 16.7088 47.01C15.5717 46.3884 14.3073 45.9599 13.2571 45.2174V56.0794C12.5761 55.706 11.8867 55.3518 11.212 55.0059C9.86274 54.3143 8.55166 53.6439 7.35938 52.8484V16.6535L7.57152 16.8084C9.07567 17.8861 10.5416 18.3762 12.1985 18.3762C12.5401 18.3762 12.8901 18.3549 13.255 18.3125V31.3215C13.4757 30.9651 13.6666 30.5663 13.8427 30.1123C14.9565 31.0033 15.7669 31.2558 17.1543 30.9163C18.5057 30.5854 19.4901 30.5854 20.8394 30.9163C22.2268 31.2537 23.0372 31.0033 24.151 30.1123C24.3292 30.5663 24.518 30.9651 24.7387 31.3215V18.3125C25.1015 18.3549 25.4536 18.3762 25.7931 18.3762C27.45 18.3762 28.9159 17.8861 30.4222 16.8084C30.4752 16.7787 30.5686 16.6981 30.6343 16.6365L30.6364 16.6387Z" fill="white"/>
<path fill-rule="evenodd" clip-rule="evenodd" d="M18.9981 48.0283C19.6006 47.4321 20.2816 46.9357 21.0305 46.5305C22.4179 45.7752 24.0897 45.2894 25.1886 44.1099C25.8272 43.4289 26.1539 42.5378 26.2579 41.6044C26.3809 40.4736 26.1836 39.2898 25.8166 38.3373C25.2947 36.9795 25.0677 35.9548 25.6575 34.561C25.8039 34.2173 25.9821 33.8864 26.1921 33.5788C25.2162 32.9211 24.41 32.0555 23.92 30.9799C22.9123 31.68 21.8812 31.7288 20.7144 31.4466C19.4563 31.139 18.5462 31.139 17.2882 31.4466C16.1213 31.7288 15.0903 31.6736 14.0826 30.9799C13.5904 32.0555 12.7863 32.9211 11.8105 33.5788C12.0184 33.8864 12.1966 34.2173 12.3451 34.561C12.9348 35.9548 12.7078 36.9816 12.186 38.3373C11.8168 39.2898 11.6216 40.4736 11.7447 41.6044C11.8486 42.5378 12.1754 43.4289 12.8139 44.1099C13.9129 45.2894 15.5846 45.7752 16.9721 46.5305C17.7209 46.9357 18.4041 47.4343 19.0045 48.0283H18.9981Z" fill="#D22029"/>
<path fill-rule="evenodd" clip-rule="evenodd" d="M18.9981 36.838L19.4542 35.4187H20.9456L19.7364 34.5467L20.2031 33.1296L18.9981 34.0079L17.7952 33.1296L18.2619 34.5467L17.0527 35.4187H18.5441L18.9981 36.838Z" fill="white"/>
<path fill-rule="evenodd" clip-rule="evenodd" d="M22.1123 36.2112C23.1921 37.1022 23.8816 38.4345 23.8816 39.9217C23.8816 42.5821 21.6838 44.7481 18.9979 44.7481C16.3121 44.7481 14.1143 42.5799 14.1143 39.9217C14.1143 38.4345 14.8016 37.1022 15.8836 36.2112C15.4593 36.8243 15.2132 37.5562 15.2132 38.3539C15.2132 40.4309 16.9146 42.1302 18.9958 42.1302C21.077 42.1302 22.7785 40.4287 22.7785 38.3539C22.7785 37.5562 22.5324 36.818 22.1081 36.2112H22.1123Z" fill="white"/>
<path fill-rule="evenodd" clip-rule="evenodd" d="M21.5354 49.0978C21.0814 49.0978 20.7122 50.0992 20.7122 51.3275C20.7122 52.5559 21.0814 53.5572 21.5354 53.5572C21.9894 53.5572 22.3522 52.5559 22.3522 51.3275C22.3522 50.0992 21.983 49.0978 21.5354 49.0978ZM21.5354 48.5335C22.8189 48.5335 23.869 49.7873 23.869 51.3275C23.869 52.8677 22.8189 54.1215 21.5354 54.1215C20.2519 54.1215 19.1954 52.8677 19.1954 51.3275C19.1954 49.7873 20.2455 48.5335 21.5354 48.5335Z" fill="white"/>
<path fill-rule="evenodd" clip-rule="evenodd" d="M26.1348 51.8912C26.854 51.9039 27.1913 52.795 26.6142 53.1556C26.6142 53.5354 27.1976 53.6414 27.5838 53.4632C27.989 53.2553 28.1481 52.7822 28.0759 52.3579C27.9338 51.5284 27.3143 51.5284 26.6397 51.4924V51.0511C27.2846 51.0384 27.8808 51.0511 28.0102 50.2598C28.1141 49.6276 27.7471 49.0611 27.0958 49.0802C26.837 49.0929 26.61 49.1969 26.5973 49.4175C27.1679 49.7612 26.8794 50.701 26.1666 50.7138C25.5535 50.7138 25.301 50.0943 25.4474 49.6085C25.6617 48.9084 26.54 48.5223 27.2295 48.5286C28.0165 48.5159 29.1834 48.9402 29.3425 49.8058C29.4464 50.3701 29.0285 50.9365 28.3284 51.242C29.0158 51.4563 29.4952 52.0779 29.3976 52.6974C29.2385 53.6011 28.059 54.14 27.2613 54.1294C26.5612 54.1357 25.6702 53.7369 25.4495 53.0114C25.3031 52.5086 25.5174 51.8933 26.1369 51.8933L26.1348 51.8912Z" fill="black"/>
<path fill-rule="evenodd" clip-rule="evenodd" d="M15.8604 53.2049C15.9771 53.0203 15.958 52.6469 15.8477 52.4306C15.7183 52.1781 15.4488 52.0317 15.0373 52.0508C14.1908 52.0932 14.055 53.0521 14.596 53.5677C14.9885 53.9474 15.6652 54.132 16.1065 54.1214C17.3709 54.1214 18.4041 52.8676 18.4041 51.3274C18.4041 49.7872 17.373 48.5334 16.1065 48.5334C15.5973 48.5206 15.0563 48.6797 14.6702 49.0362C13.9998 49.662 13.8832 50.8734 14.6957 51.4504C15.2855 51.8684 16.2062 51.9108 16.8893 51.4801C16.9148 52.5663 16.5584 53.5443 16.1086 53.5571C15.9007 53.5571 15.8562 53.4213 15.8625 53.207L15.8604 53.2049ZM16.1065 49.0956C16.9593 49.0956 16.9784 51.1661 16.1065 51.1661C15.2346 51.1661 15.277 49.0956 16.1065 49.0956Z" fill="white"/>
<path fill-rule="evenodd" clip-rule="evenodd" d="M12.4639 54.0042H9.92024L9.88418 53.6966L10.5355 53.1811V50.1155H9.61475V49.5512C10.1175 49.3603 10.6097 49.2011 11.174 48.6474H11.855V53.179L12.5063 53.6945L12.4639 54.0021V54.0042Z" fill="black"/>
<path fill-rule="evenodd" clip-rule="evenodd" d="M9.87759 27.6258C10.461 27.717 11.0741 27.5961 11.2417 26.9448C11.3839 26.4229 11.3457 25.5022 11.1802 24.9803C11.0508 24.5815 10.7941 24.2929 10.2828 24.2929L9.67393 24.2993V27.3521C9.68665 27.5494 9.75454 27.6173 9.87759 27.6279V27.6258ZM9.67393 20.8879V23.5907H10.1958C10.9023 23.5907 11.019 22.8418 11.0126 22.1226C11.0062 21.5944 11.0868 21.0237 10.6689 20.7712C10.5331 20.6906 10.2701 20.6546 10.0558 20.6418C9.84152 20.6291 9.67393 20.6546 9.67393 20.8879ZM9.42783 28.1668C8.63015 28.0204 7.72003 28.2347 7.56091 28.3026C7.64153 28.0756 7.76882 28.0268 7.93642 27.8974C8.04674 27.8061 8.07219 27.6767 8.09553 27.21V24.1996V20.8222C8.09553 20.5464 7.91732 20.3003 7.72003 20.1221H10.6307C11.2502 20.1221 11.6257 20.2027 12.0627 20.7118C12.6758 21.4374 12.8498 22.53 12.2473 23.3467C12.0267 23.6544 11.6703 23.8686 11.2163 23.9493C11.7381 24.0044 12.1985 24.329 12.5422 24.7597C13.4566 25.8841 13.0513 27.7128 11.6512 28.1986C10.9871 28.432 10.1088 28.2347 9.42783 28.1689V28.1668Z" fill="black"/>
<path fill-rule="evenodd" clip-rule="evenodd" d="M17.4687 20.1458H21.2958C21.0922 20.324 20.9203 20.5446 20.9203 20.8204V27.5159C20.9394 27.9529 20.9458 28.1056 21.037 28.1905C20.8843 28.1544 20.7294 28.1544 20.5576 28.2266C19.4523 28.5575 18.1497 28.8969 17.021 28.479C16.5543 28.3008 16.0876 28.0059 15.8054 27.571C15.3068 26.7839 15.4914 25.4771 16.6349 25.5683C17.0656 25.6044 17.4644 25.8696 17.4644 26.3236C17.4899 26.8455 17.0783 27.1403 16.55 27.0788C16.5437 27.0788 16.5373 27.134 16.5309 27.134C16.5988 27.6919 17.1271 27.938 17.6553 28.0377C18.4042 28.1799 19.2083 28.0017 19.2083 27.3673V20.6846C18.8582 20.6167 18.3554 20.5934 18.0478 20.6846C17.6426 20.8077 17.439 20.9435 17.1271 20.8565C17.3053 20.6422 17.422 20.4449 17.4708 20.1436L17.4687 20.1458Z" fill="white"/>
<path fill-rule="evenodd" clip-rule="evenodd" d="M26.9282 23.4252L28.2477 21.1467C28.4938 20.7224 28.3941 20.4954 28.0335 20.1454H30.0595C29.6055 20.4148 29.3403 20.6248 29.0709 21.0661L27.5285 23.5907C28.6211 23.474 29.1982 24.2356 29.4634 25.6358C29.6288 26.5141 29.6416 27.6873 30.4329 28.2771H29.474C27.484 28.3874 28.8778 24.1317 26.926 24.1317V27.2079C26.9451 27.6746 26.9685 27.804 27.0852 27.8952C27.2506 28.0246 27.3928 28.0734 27.4713 28.3004C26.8454 28.171 25.5492 28.1349 24.8979 28.3259C24.9785 28.0989 25.0697 27.9758 25.2416 27.8464C25.3519 27.7594 25.3773 27.6746 25.4007 27.2079V20.82C25.4007 20.5442 25.2225 20.3236 25.0188 20.1454H27.2973C27.0936 20.3236 26.9218 20.5442 26.9218 20.82V23.4231L26.9282 23.4252Z" fill="black"/>
</g>
<defs>
<clipPath id="clip0_300_1510">
<rect width="37.9981" height="63" fill="white"/>
</clipPath>
</defs>
</svg>
